<?xml version="1.0" encoding="utf-8"?>
<!-- Generator: Adobe Illustrator 23.1.0, SVG Export Plug-In . SVG Version: 6.00 Build 0)  -->
<svg version="1.1" xmlns="http://www.w3.org/2000/svg" xmlns:xlink="http://www.w3.org/1999/xlink" x="0px" y="0px"
	 viewBox="0 0 595.3 841.9" enable-background="new 0 0 595.3 841.9" xml:space="preserve">
<g id="Capa_1">
	<g>
		<polygon fill="#E09B52" stroke="#7C6B59" stroke-width="5.8951" stroke-linejoin="round" stroke-miterlimit="10" points="
			288.6,820.2 401.3,820.2 447.7,580 288.6,580 129.4,580 175.8,820.2 		"/>
		<polyline fill="#E09B52" stroke="#7C6B59" stroke-width="5.8951" stroke-linejoin="round" stroke-miterlimit="10" points="
			288.6,580 477.6,580 477.6,502.6 288.6,502.6 99.5,502.6 99.5,580 288.6,580 		"/>
		<path fill="#97C456" stroke="#7C6B59" stroke-width="5.6204" stroke-linejoin="round" stroke-miterlimit="10" d="M210.4,290.1
			c0,0-41.3,26.4-85.4-44.5c0,0-92.6-104.5-31-154.8c64.9-45.1,120,87.6,120,87.6c44.2,70.9,6.9,103.7,6.9,103.7L210.4,290.1z"/>
		<polygon fill="#B0733A" points="133.5,583.1 169.5,583.1 219.8,817.1 178.3,817.1 		"/>
		<polygon fill="#F7B980" points="445.2,583 434.8,583 387.8,817 398.8,817 		"/>
		<polygon fill="#B0733A" points="103.2,505.4 140.2,505.4 155.1,577.2 103.2,577.2 		"/>
		<polygon fill="#F7B980" points="474,505.4 459.6,505.4 445.2,577.2 474,577.2 		"/>
		<polyline fill="none" stroke="#7C6B59" stroke-width="2.8102" stroke-linejoin="round" stroke-miterlimit="10" points="130,119.8 
			151.8,125.5 145.7,103.1 		"/>
		<path fill="#97C456" stroke="#7C6B59" stroke-width="5.6204" stroke-linejoin="round" stroke-miterlimit="10" d="M281.7,502.6
			h86.4c0,0,62.3-139.3,0-278.5c0,0-19.6-59.2-86.4-58.9c-62.8-0.4-86.4,58.9-86.4,58.9c-62.3,139.3,0,278.5,0,278.5
			S281.7,502.6,281.7,502.6z"/>
		<path fill="#AECD61" d="M313.7,173.6c0,0,62.9,9.1,79.6,158c0,0,6.4,77.9-27.9,167.8l-18.9,0.1c0,0,51.1-100.4,24.1-211.4
			C370.6,288.1,355.5,215.2,313.7,173.6z"/>
		<path fill="#97C456" stroke="#7C6B59" stroke-width="5.6204" stroke-linejoin="round" stroke-miterlimit="10" d="M342.4,390.4
			c0,0,36.2,34.3,91.4-26.5c0,0,108.5-84,56.3-145.9c-56.3-57.5-132.6,61.9-132.6,61.9c-55.3,60.8-24.1,100.6-24.1,100.6
			L342.4,390.4z"/>
		<polyline fill="none" stroke="#7C6B59" stroke-width="2.8102" stroke-linejoin="round" stroke-miterlimit="10" points="
			298.3,191.9 310.4,212.7 320.2,191.9 		"/>
		<polyline fill="none" stroke="#7C6B59" stroke-width="2.8102" stroke-linejoin="round" stroke-miterlimit="10" points="
			381.1,208.5 374.5,232 395.2,226.8 		"/>
		<polyline fill="none" stroke="#7C6B59" stroke-width="2.8102" stroke-linejoin="round" stroke-miterlimit="10" points="
			356.5,170.9 349.9,194.4 370.6,189.3 		"/>
		<polyline fill="none" stroke="#7C6B59" stroke-width="2.8102" stroke-linejoin="round" stroke-miterlimit="10" points="
			313.7,148.5 317.5,172.8 333.8,157.9 		"/>
		<polyline fill="none" stroke="#7C6B59" stroke-width="2.8102" stroke-linejoin="round" stroke-miterlimit="10" points="276.5,143 
			285.4,165.6 298.1,146.8 		"/>
		<polyline fill="none" stroke="#7C6B59" stroke-width="2.8102" stroke-linejoin="round" stroke-miterlimit="10" points="
			238.4,151.6 252.8,170.5 260.1,148.5 		"/>
		<polyline fill="none" stroke="#7C6B59" stroke-width="2.8102" stroke-linejoin="round" stroke-miterlimit="10" points="
			206.1,171.5 226.4,181.7 224.4,158.4 		"/>
		<polyline fill="none" stroke="#7C6B59" stroke-width="2.8102" stroke-linejoin="round" stroke-miterlimit="10" points="
			179.7,209.7 202.1,210.9 192.3,190.1 		"/>
		<polyline fill="none" stroke="#7C6B59" stroke-width="2.8102" stroke-linejoin="round" stroke-miterlimit="10" points="
			158.1,257.3 180.5,258.5 170.8,237.7 		"/>
		<polyline fill="none" stroke="#7C6B59" stroke-width="2.8102" stroke-linejoin="round" stroke-miterlimit="10" points="148.7,315 
			170.3,308.4 155.1,292 		"/>
		<polyline fill="none" stroke="#7C6B59" stroke-width="2.8102" stroke-linejoin="round" stroke-miterlimit="10" points="
			147.3,356.8 168.9,350.2 153.7,333.9 		"/>
		<polyline fill="none" stroke="#7C6B59" stroke-width="2.8102" stroke-linejoin="round" stroke-miterlimit="10" points="
			152.9,406.7 168.5,389.1 147.9,383.3 		"/>
		<polyline fill="none" stroke="#7C6B59" stroke-width="2.8102" stroke-linejoin="round" stroke-miterlimit="10" points="
			159.2,454.2 174.8,436.6 154.2,430.8 		"/>
		<polyline fill="none" stroke="#7C6B59" stroke-width="2.8102" stroke-linejoin="round" stroke-miterlimit="10" points="
			169.5,492.5 185.1,474.9 164.5,469.1 		"/>
		<polyline fill="none" stroke="#7C6B59" stroke-width="2.8102" stroke-linejoin="round" stroke-miterlimit="10" points="
			364.3,331.6 355.5,354.2 376.6,351.5 		"/>
		<polyline fill="none" stroke="#7C6B59" stroke-width="2.8102" stroke-linejoin="round" stroke-miterlimit="10" points="
			379.5,279.5 370.6,302.1 391.7,299.4 		"/>
		<polyline fill="none" stroke="#7C6B59" stroke-width="2.8102" stroke-linejoin="round" stroke-miterlimit="10" points="
			420.1,308.9 411.3,331.6 432.4,328.8 		"/>
		<polyline fill="none" stroke="#7C6B59" stroke-width="2.8102" stroke-linejoin="round" stroke-miterlimit="10" points="
			428.4,253.4 419.6,276 440.7,273.3 		"/>
		<polyline fill="none" stroke="#7C6B59" stroke-width="2.8102" stroke-linejoin="round" stroke-miterlimit="10" points="
			449.5,212.7 440.7,235.3 461.8,232.6 		"/>
		<polyline fill="none" stroke="#7C6B59" stroke-width="2.8102" stroke-linejoin="round" stroke-miterlimit="10" points="465,279.5 
			456.2,302.1 477.3,299.4 		"/>
		<polyline fill="none" stroke="#7C6B59" stroke-width="2.8102" stroke-linejoin="round" stroke-miterlimit="10" points="
			153.2,166.2 175,171.9 168.9,149.5 		"/>
		<polyline fill="none" stroke="#7C6B59" stroke-width="2.8102" stroke-linejoin="round" stroke-miterlimit="10" points="
			112.9,197.4 134.7,203.1 128.6,180.7 		"/>
		<polyline fill="none" stroke="#7C6B59" stroke-width="2.8102" stroke-linejoin="round" stroke-miterlimit="10" points="
			83.7,125.8 105.4,131.5 99.4,109.1 		"/>
		<polyline fill="none" stroke="#7C6B59" stroke-width="2.8102" stroke-linejoin="round" stroke-miterlimit="10" points="249.2,208 
			261.2,228.7 271,208 		"/>
		<polyline fill="none" stroke="#7C6B59" stroke-width="2.8102" stroke-linejoin="round" stroke-miterlimit="10" points="
			313.7,248.1 325.8,268.9 335.6,248.1 		"/>
		<path fill="#799946" d="M263.4,170.1c0,0-75.9,0.8-94.1,161.5c0,0-6.4,77.9,27.9,167.8l28.9,0.1c0,0-47.1-97.8-20.1-208.8
			C206,290.8,221.2,204.5,263.4,170.1z"/>
		<polyline fill="none" stroke="#7C6B59" stroke-width="2.8102" stroke-linejoin="round" stroke-miterlimit="10" points="206,243 
			218,263.8 227.8,243 		"/>
		<polyline fill="none" stroke="#7C6B59" stroke-width="2.8102" stroke-linejoin="round" stroke-miterlimit="10" points="
			248.9,291.7 261,312.4 270.8,291.7 		"/>
		<polyline fill="none" stroke="#7C6B59" stroke-width="2.8102" stroke-linejoin="round" stroke-miterlimit="10" points="
			182.5,316.2 194.6,337 204.3,316.2 		"/>
		<polyline fill="none" stroke="#7C6B59" stroke-width="2.8102" stroke-linejoin="round" stroke-miterlimit="10" points="
			281.7,343.8 293.7,364.6 303.5,343.8 		"/>
		<polyline fill="none" stroke="#7C6B59" stroke-width="2.8102" stroke-linejoin="round" stroke-miterlimit="10" points="
			324.6,448.4 336.7,469.1 346.5,448.4 		"/>
		<polyline fill="none" stroke="#7C6B59" stroke-width="2.8102" stroke-linejoin="round" stroke-miterlimit="10" points="
			276.3,421.8 288.4,442.5 298.2,421.8 		"/>
		<polyline fill="none" stroke="#7C6B59" stroke-width="2.8102" stroke-linejoin="round" stroke-miterlimit="10" points="
			228.6,452.9 240.6,473.6 250.4,452.9 		"/>
		<polyline fill="none" stroke="#7C6B59" stroke-width="2.8102" stroke-linejoin="round" stroke-miterlimit="10" points="
			208.2,379.2 220.3,400 230.1,379.2 		"/>
	</g>
</g>
<g id="Capa_2">
</g>
</svg>
