<?xml version="1.0" encoding="iso-8859-1"?>
<!-- Generator: Adobe Illustrator 21.1.0, SVG Export Plug-In . SVG Version: 6.00 Build 0)  -->
<svg version="1.1" id="Layer_1" xmlns="http://www.w3.org/2000/svg" xmlns:xlink="http://www.w3.org/1999/xlink" x="0px" y="0px"
	 viewBox="0 0 24 24" enable-background="new 0 0 24 24" xml:space="preserve">
<g>
	<path fill="#303C42" d="M17.7468338,12.0397339l4.6672974-4.6256714C22.7920609,7.0361328,23.0000687,6.5341797,23.0000687,6
		s-0.2080078-1.0361328-0.5859375-1.4140625l-3-3c-0.7558594-0.7558594-2.0708008-0.7573242-2.8295898,0.0014648
		l-4.6242065,4.6658325L6.8535843,1.1464844c-0.1953125-0.1953125-0.5117188-0.1953125-0.7070313,0l-5,5
		c-0.1953124,0.1953125-0.1953124,0.5117188,0,0.7070313l5.1323853,5.1323853L3.145088,15.1479492
		c-0.0595703,0.0600586-0.1025391,0.1337891-0.1259766,0.2148438l-2,7
		c-0.0498046,0.1743164-0.0009766,0.3623047,0.1274414,0.4907227C1.2417676,22.9487305,1.3692091,23,1.5000684,23
		c0.0458984,0,0.0922852-0.0063477,0.137207-0.019043l7-2c0.0810547-0.0234375,0.1547852-0.0664063,0.2148438-0.1259766
		l3.1620483-3.1338501l5.1323853,5.1323853C17.2442093,22.9511719,17.372139,23,17.5000687,23
		s0.2558594-0.0488281,0.3535156-0.1464844l5-5c0.1953125-0.1953125,0.1953125-0.5117188,0-0.7070313L17.7468338,12.0397339z"/>
	<path fill="#FFCB29" d="M6.6369705,16.6560669l-0.6896362-1.3796997C5.8623734,15.1069336,5.6895218,15,5.5000687,15H4.6993484
		l9.7062988-9.7936401l1.8405151,1.8405151L6.6369705,16.6560669z"/>
	<path fill="#FFCB29" d="M8.7237015,18.0527344l-1.3796997-0.6896362l9.6091919-9.6091919l1.8405151,1.8405151l-9.7936401,9.7062988
		V18.5C9.0000687,18.3105469,8.8931351,18.1376953,8.7237015,18.0527344z"/>
	<path fill="#D32E2E" d="M17.2930374,2.2929688c0.3779297-0.3779297,1.0361328-0.3779297,1.4140625,0l3,3
		C21.8960648,5.4819336,22.0000687,5.7329102,22.0000687,6s-0.1040039,0.5180664-0.2915039,0.7055664L19.5039139,8.890564
		l-4.3944092-4.3944092L17.2930374,2.2929688z"/>
	<path fill="#F3F3F3" d="M6.2070999,10.5l1.6464844-1.6464844c0.1953125-0.1953125,0.1953125-0.5117188,0-0.7070313
		s-0.5117188-0.1953125-0.7070313,0L5.5000687,9.7929688L4.2070999,8.5l1.6464844-1.6464844
		c0.1953125-0.1953125,0.1953125-0.5117188,0-0.7070313s-0.5117188-0.1953125-0.7070313,0L3.5000684,7.7929688L2.2070997,6.5
		l4.2929688-4.2929688l4.7564087,4.7564087l-4.2736816,4.3122559L6.2070999,10.5z"/>
	<path fill="#F3F3F3" d="M17.5000687,21.7929688L16.2070999,20.5l1.6464844-1.6464844
		c0.1953125-0.1953125,0.1953125-0.5117188,0-0.7070313s-0.5117188-0.1953125-0.7070313,0l-1.6464844,1.6464844L14.2070999,18.5
		l1.6464844-1.6464844c0.1953125-0.1953125,0.1953125-0.5117188,0-0.7070313s-0.5117188-0.1953125-0.7070313,0l-1.6464844,1.6464844
		l-0.7756958-0.7756958l4.3122559-4.2736816L21.7930374,17.5L17.5000687,21.7929688z"/>
	<path opacity="0.1" fill="#010101" d="M17.5000687,21.7929688L16.2070999,20.5l1.6464844-1.6464844
		c0.1953125-0.1953125,0.1953125-0.5117188,0-0.7070313s-0.5117188-0.1953125-0.7070313,0l-1.6464844,1.6464844L14.2070999,18.5
		l1.6464844-1.6464844c0.1953125-0.1953125,0.1953125-0.5117188,0-0.7070313s-0.5117188-0.1953125-0.7070313,0l-1.6464844,1.6464844
		l-0.7756958-0.7756958l4.3122559-4.2736816L21.7930374,17.5L17.5000687,21.7929688z"/>
	<path fill="#F3F3F3" d="M6.279438,17.949667c-0.0483398-0.0241699-0.1994629-0.175293-0.2236328-0.2236328l-0.8618164-1.7236328
		H3.880024L2.76717,19.8980312l1.3946533,1.3247681l3.8412476-1.0973511v-1.3139648L6.279438,17.949667z"/>
	<polygon fill="#676767" points="4.1618118,21.2227783 2.7671583,19.8980103 2.8823926,19.4945068 2.8823926,19.4945068 
		2.2310865,21.774353 4.5109329,21.1230469 4.5109329,21.1230469 	"/>
	<g>
		<path opacity="0.1" fill="#010101" d="M8.0030708,18.8114834L6.279438,17.949667
			c-0.0483398-0.0241699-0.0740356-0.0740356-0.1118164-0.1118164L2.2310982,21.774374l5.7719727-1.6489258V18.8114834z"/>
		<path opacity="0.1" fill="#010101" d="M20.2101021,3.7953708l-2.9003906,2.9003909l2.1972046,2.1972046l2.2046509-2.1849976
			c0.1875-0.1875,0.2915039-0.4384766,0.2915039-0.7055664s-0.1040039-0.5180664-0.2929688-0.7070313L20.2101021,3.7953708z"/>
		<path opacity="0.1" fill="#010101" d="M8.7267036,18.0551357l-1.3796997-0.6896362l9.6091919-9.6091909l1.8405151,1.8405151
			l-9.7936401,9.7062979v-0.8007202C9.0030708,18.3129482,8.8961372,18.1400967,8.7267036,18.0551357z"/>
	</g>
	<linearGradient id="SVGID_1_" gradientUnits="userSpaceOnUse" x1="0.4417236" y1="7.5862741" x2="22.8107395" y2="18.0171185">
		<stop  offset="0" style="stop-color:#FFFFFF;stop-opacity:0.2"/>
		<stop  offset="1" style="stop-color:#FFFFFF;stop-opacity:0"/>
	</linearGradient>
	<path fill="url(#SVGID_1_)" d="M17.7468338,12.0397339l4.6672974-4.6256714
		C22.7920609,7.0361328,23.0000687,6.5341797,23.0000687,6s-0.2080078-1.0361328-0.5859375-1.4140625l-3-3
		c-0.7558594-0.7558594-2.0708008-0.7573242-2.8295898,0.0014648l-4.6242065,4.6658325L6.8535843,1.1464844
		c-0.1953125-0.1953125-0.5117188-0.1953125-0.7070313,0l-5,5c-0.1953124,0.1953125-0.1953124,0.5117188,0,0.7070313
		l5.1323853,5.1323853L3.145088,15.1479492c-0.0595703,0.0600586-0.1025391,0.1337891-0.1259766,0.2148438l-2,7
		c-0.0498046,0.1743164-0.0009766,0.3623047,0.1274414,0.4907227C1.2417676,22.9487305,1.3692091,23,1.5000684,23
		c0.0458984,0,0.0922852-0.0063477,0.137207-0.019043l7-2c0.0810547-0.0234375,0.1547852-0.0664063,0.2148438-0.1259766
		l3.1620483-3.1338501l5.1323853,5.1323853C17.2442093,22.9511719,17.372139,23,17.5000687,23
		s0.2558594-0.0488281,0.3535156-0.1464844l5-5c0.1953125-0.1953125,0.1953125-0.5117188,0-0.7070313L17.7468338,12.0397339z"/>
</g>
<g>
</g>
<g>
</g>
<g>
</g>
<g>
</g>
<g>
</g>
<g>
</g>
<g>
</g>
<g>
</g>
<g>
</g>
<g>
</g>
<g>
</g>
<g>
</g>
<g>
</g>
<g>
</g>
<g>
</g>
</svg>
